# xmcd CD database file
#
# Track frame offsets:
#	150
#	19147
#	34137
#	49855
#	69384
#	87789
#	105911
#	125594
#	140719
#	157587
#	174112
#	188764
#	208200
#
# Disc length: 2985 seconds
#
# Revision: 1
# Processed by: cddbd v1.5.2PL0 Copyright (c) Steve Scherf et al.
# Submitted via: CDex 1.51
#
DISCID=a50ba70d
DTITLE=Brantley Gilbert - A Modern Day Prodigal Son
DYEAR=2009
DGENRE=Country
TTITLE0=Freshman Year
TTITLE1=What's Left Of A Small Town
TTITLE2=G.R.I.T.S.
TTITLE3=Whenever We're Alone
TTITLE4=The Best Of Me
TTITLE5=My Kinda Party
TTITLE6=A Modern Day Prodigal Son
TTITLE7=Live It Up
TTITLE8=Friday Night
TTITLE9=Indiana's Angel
TTITLE10=Rock This Town
TTITLE11=Picture On The Dashboard
TTITLE12=Play Me That Song
EXTD=YEAR: 2009
EXTT0=
EXTT1=
EXTT2=
EXTT3=
EXTT4=
EXTT5=
EXTT6=
EXTT7=
EXTT8=
EXTT9=
EXTT10=
EXTT11=
EXTT12=
PLAYORDER=
